<svg xmlns="http://www.w3.org/2000/svg" viewBox="0 0 900 1090" width="900" height="1090" role="img" aria-label="A 3-turn conversation, end to end (8-bit KV)" font-family="-apple-system,BlinkMacSystemFont,Segoe UI,Helvetica,Arial,sans-serif">
<rect width="900" height="1090" rx="8" fill="#1a1a19"/>
<text x="20" y="30" fill="#ffffff" font-size="16" font-weight="600">A 3-turn conversation, end to end (8-bit KV)</text>
<text x="20" y="50" fill="#c3c2b7" font-size="12">Turn 1 reads the prompt cold; turns 2–3 add ~300 tokens each · ≤ 256 generated tokens per turn · own time scale per panel</text>
<rect x="23" y="66" width="16" height="11" rx="2" fill="#3987e5"/>
<text x="48" y="76" fill="#c3c2b7" font-size="12">MTPLX fork</text>
<rect x="133" y="66" width="16" height="11" rx="2" fill="#d95926"/>
<text x="158" y="76" fill="#c3c2b7" font-size="12">MTPLX upstream</text>
<rect x="271" y="66" width="16" height="11" rx="2" fill="#199e70"/>
<text x="296" y="76" fill="#c3c2b7" font-size="12">oMLX</text>
<rect x="339" y="66" width="16" height="11" rx="2" fill="#c98500"/>
<text x="364" y="76" fill="#c3c2b7" font-size="12">Splash M1 build</text>
<rect x="484" y="66" width="16" height="11" rx="2" fill="#d55181"/>
<text x="509" y="76" fill="#c3c2b7" font-size="12">Splash source (HEAD)</text>
<rect x="650" y="66" width="16" height="11" rx="2" fill="#c3c2b7"/><text x="672" y="76" fill="#c3c2b7" font-size="12">TTFT</text><rect x="720" y="66" width="16" height="11" rx="2" fill="#c3c2b7" fill-opacity="0.4"/><text x="742" y="76" fill="#c3c2b7" font-size="12">generation</text>
<text x="20" y="110" fill="#ffffff" font-size="13" font-weight="600">2K prompt</text>
<line x1="150.0" x2="150.0" y1="118" y2="242" stroke="#34332f"/><text x="150.0" y="256" fill="#c3c2b7" font-size="10" text-anchor="middle">0 s</text>
<line x1="315.0" x2="315.0" y1="118" y2="242" stroke="#34332f"/><text x="315.0" y="256" fill="#c3c2b7" font-size="10" text-anchor="middle">20 </text>
<line x1="480.0" x2="480.0" y1="118" y2="242" stroke="#34332f"/><text x="480.0" y="256" fill="#c3c2b7" font-size="10" text-anchor="middle">40 </text>
<line x1="645.0" x2="645.0" y1="118" y2="242" stroke="#34332f"/><text x="645.0" y="256" fill="#c3c2b7" font-size="10" text-anchor="middle">60 </text>
<line x1="810.0" x2="810.0" y1="118" y2="242" stroke="#34332f"/><text x="810.0" y="256" fill="#c3c2b7" font-size="10" text-anchor="middle">80 </text>
<text x="142" y="135" fill="#c3c2b7" font-size="11" text-anchor="end">MTPLX fork</text>
<rect x="150.0" y="122" width="96.3" height="18" rx="2" fill="#3987e5"><title>MTPLX fork 2K turn 1: TTFT 11.7 s, generation 9.13 s</title></rect>
<rect x="246.3" y="122" width="75.3" height="18" rx="2" fill="#3987e5" fill-opacity="0.4"><title>MTPLX fork 2K turn 1: TTFT 11.7 s, generation 9.13 s</title></rect>
<rect x="323.6" y="122" width="5.2" height="18" rx="2" fill="#3987e5"><title>MTPLX fork 2K turn 2: TTFT 0.64 s, generation 9.12 s</title></rect>
<rect x="328.9" y="122" width="75.2" height="18" rx="2" fill="#3987e5" fill-opacity="0.4"><title>MTPLX fork 2K turn 2: TTFT 0.64 s, generation 9.12 s</title></rect>
<rect x="406.1" y="122" width="5.0" height="18" rx="2" fill="#3987e5"><title>MTPLX fork 2K turn 3: TTFT 0.61 s, generation 6.19 s</title></rect>
<rect x="411.1" y="122" width="51.0" height="18" rx="2" fill="#3987e5" fill-opacity="0.4"><title>MTPLX fork 2K turn 3: TTFT 0.61 s, generation 6.19 s</title></rect>
<text x="470.2" y="135" fill="#ffffff" font-size="11">37.4 s</text>
<text x="142" y="159" fill="#c3c2b7" font-size="11" text-anchor="end">MTPLX upstream</text>
<rect x="150.0" y="146" width="94.9" height="18" rx="2" fill="#d95926"><title>MTPLX upstream 2K turn 1: TTFT 11.5 s, generation 10.3 s</title></rect>
<rect x="244.9" y="146" width="84.7" height="18" rx="2" fill="#d95926" fill-opacity="0.4"><title>MTPLX upstream 2K turn 1: TTFT 11.5 s, generation 10.3 s</title></rect>
<rect x="331.6" y="146" width="5.2" height="18" rx="2" fill="#d95926"><title>MTPLX upstream 2K turn 2: TTFT 0.64 s, generation 11.3 s</title></rect>
<rect x="336.8" y="146" width="93.0" height="18" rx="2" fill="#d95926" fill-opacity="0.4"><title>MTPLX upstream 2K turn 2: TTFT 0.64 s, generation 11.3 s</title></rect>
<rect x="431.8" y="146" width="5.3" height="18" rx="2" fill="#d95926"><title>MTPLX upstream 2K turn 3: TTFT 0.64 s, generation 7.44 s</title></rect>
<rect x="437.1" y="146" width="61.3" height="18" rx="2" fill="#d95926" fill-opacity="0.4"><title>MTPLX upstream 2K turn 3: TTFT 0.64 s, generation 7.44 s</title></rect>
<text x="506.5" y="159" fill="#ffffff" font-size="11">41.8 s</text>
<text x="142" y="183" fill="#c3c2b7" font-size="11" text-anchor="end">oMLX</text>
<rect x="150.0" y="170" width="94.4" height="18" rx="2" fill="#199e70"><title>oMLX 2K turn 1: TTFT 11.4 s, generation 12.3 s</title></rect>
<rect x="244.4" y="170" width="101.3" height="18" rx="2" fill="#199e70" fill-opacity="0.4"><title>oMLX 2K turn 1: TTFT 11.4 s, generation 12.3 s</title></rect>
<rect x="347.7" y="170" width="111.0" height="18" rx="2" fill="#199e70"><title>oMLX 2K turn 2: TTFT 13.5 s, generation 10.9 s</title></rect>
<rect x="458.7" y="170" width="89.6" height="18" rx="2" fill="#199e70" fill-opacity="0.4"><title>oMLX 2K turn 2: TTFT 13.5 s, generation 10.9 s</title></rect>
<rect x="550.3" y="170" width="127.4" height="18" rx="2" fill="#199e70"><title>oMLX 2K turn 3: TTFT 15.4 s, generation 7.95 s</title></rect>
<rect x="677.8" y="170" width="65.6" height="18" rx="2" fill="#199e70" fill-opacity="0.4"><title>oMLX 2K turn 3: TTFT 15.4 s, generation 7.95 s</title></rect>
<text x="751.4" y="183" fill="#ffffff" font-size="11">1.2 min</text>
<text x="142" y="207" fill="#c3c2b7" font-size="11" text-anchor="end">Splash M1 build</text>
<rect x="150.0" y="194" width="100.2" height="18" rx="2" fill="#c98500"><title>Splash M1 build 2K turn 1: TTFT 12.1 s, generation 9.22 s</title></rect>
<rect x="250.2" y="194" width="76.1" height="18" rx="2" fill="#c98500" fill-opacity="0.4"><title>Splash M1 build 2K turn 1: TTFT 12.1 s, generation 9.22 s</title></rect>
<rect x="328.3" y="194" width="23.7" height="18" rx="2" fill="#c98500"><title>Splash M1 build 2K turn 2: TTFT 2.87 s, generation 6.13 s</title></rect>
<rect x="351.9" y="194" width="50.6" height="18" rx="2" fill="#c98500" fill-opacity="0.4"><title>Splash M1 build 2K turn 2: TTFT 2.87 s, generation 6.13 s</title></rect>
<rect x="404.5" y="194" width="22.1" height="18" rx="2" fill="#c98500"><title>Splash M1 build 2K turn 3: TTFT 2.68 s, generation 5.91 s</title></rect>
<rect x="426.6" y="194" width="48.8" height="18" rx="2" fill="#c98500" fill-opacity="0.4"><title>Splash M1 build 2K turn 3: TTFT 2.68 s, generation 5.91 s</title></rect>
<text x="483.4" y="207" fill="#ffffff" font-size="11">39.0 s</text>
<text x="142" y="231" fill="#c3c2b7" font-size="11" text-anchor="end">Splash source (HEAD)</text>
<rect x="150.0" y="218" width="100.9" height="18" rx="2" fill="#d55181"><title>Splash source (HEAD) 2K turn 1: TTFT 12.2 s, generation 8.92 s</title></rect>
<rect x="250.9" y="218" width="73.6" height="18" rx="2" fill="#d55181" fill-opacity="0.4"><title>Splash source (HEAD) 2K turn 1: TTFT 12.2 s, generation 8.92 s</title></rect>
<rect x="326.5" y="218" width="23.2" height="18" rx="2" fill="#d55181"><title>Splash source (HEAD) 2K turn 2: TTFT 2.81 s, generation 7.11 s</title></rect>
<rect x="349.7" y="218" width="58.7" height="18" rx="2" fill="#d55181" fill-opacity="0.4"><title>Splash source (HEAD) 2K turn 2: TTFT 2.81 s, generation 7.11 s</title></rect>
<rect x="410.3" y="218" width="21.6" height="18" rx="2" fill="#d55181"><title>Splash source (HEAD) 2K turn 3: TTFT 2.62 s, generation 5.54 s</title></rect>
<rect x="432.0" y="218" width="45.7" height="18" rx="2" fill="#d55181" fill-opacity="0.4"><title>Splash source (HEAD) 2K turn 3: TTFT 2.62 s, generation 5.54 s</title></rect>
<text x="485.7" y="231" fill="#ffffff" font-size="11">39.2 s</text>
<text x="20" y="306" fill="#ffffff" font-size="13" font-weight="600">8K prompt</text>
<line x1="150.0" x2="150.0" y1="314" y2="438" stroke="#34332f"/><text x="150.0" y="452" fill="#c3c2b7" font-size="10" text-anchor="middle">0 s</text>
<line x1="282.0" x2="282.0" y1="314" y2="438" stroke="#34332f"/><text x="282.0" y="452" fill="#c3c2b7" font-size="10" text-anchor="middle">25 </text>
<line x1="414.0" x2="414.0" y1="314" y2="438" stroke="#34332f"/><text x="414.0" y="452" fill="#c3c2b7" font-size="10" text-anchor="middle">50 </text>
<line x1="546.0" x2="546.0" y1="314" y2="438" stroke="#34332f"/><text x="546.0" y="452" fill="#c3c2b7" font-size="10" text-anchor="middle">75 </text>
<line x1="678.0" x2="678.0" y1="314" y2="438" stroke="#34332f"/><text x="678.0" y="452" fill="#c3c2b7" font-size="10" text-anchor="middle">100 </text>
<line x1="810.0" x2="810.0" y1="314" y2="438" stroke="#34332f"/><text x="810.0" y="452" fill="#c3c2b7" font-size="10" text-anchor="middle">125 </text>
<text x="142" y="331" fill="#c3c2b7" font-size="11" text-anchor="end">MTPLX fork</text>
<rect x="150.0" y="318" width="294.4" height="18" rx="2" fill="#3987e5"><title>MTPLX fork 8K turn 1: TTFT 55.8 s, generation 9.80 s</title></rect>
<rect x="444.4" y="318" width="51.7" height="18" rx="2" fill="#3987e5" fill-opacity="0.4"><title>MTPLX fork 8K turn 1: TTFT 55.8 s, generation 9.80 s</title></rect>
<rect x="498.2" y="318" width="4.0" height="18" rx="2" fill="#3987e5"><title>MTPLX fork 8K turn 2: TTFT 0.76 s, generation 9.12 s</title></rect>
<rect x="502.2" y="318" width="48.2" height="18" rx="2" fill="#3987e5" fill-opacity="0.4"><title>MTPLX fork 8K turn 2: TTFT 0.76 s, generation 9.12 s</title></rect>
<rect x="552.3" y="318" width="3.8" height="18" rx="2" fill="#3987e5"><title>MTPLX fork 8K turn 3: TTFT 0.72 s, generation 7.61 s</title></rect>
<rect x="556.2" y="318" width="40.2" height="18" rx="2" fill="#3987e5" fill-opacity="0.4"><title>MTPLX fork 8K turn 3: TTFT 0.72 s, generation 7.61 s</title></rect>
<text x="604.3" y="331" fill="#ffffff" font-size="11">1.4 min</text>
<text x="142" y="355" fill="#c3c2b7" font-size="11" text-anchor="end">MTPLX upstream</text>
<rect x="150.0" y="342" width="286.1" height="18" rx="2" fill="#d95926"><title>MTPLX upstream 8K turn 1: TTFT 54.2 s, generation 11.0 s</title></rect>
<rect x="436.1" y="342" width="58.0" height="18" rx="2" fill="#d95926" fill-opacity="0.4"><title>MTPLX upstream 8K turn 1: TTFT 54.2 s, generation 11.0 s</title></rect>
<rect x="496.1" y="342" width="4.0" height="18" rx="2" fill="#d95926"><title>MTPLX upstream 8K turn 2: TTFT 0.76 s, generation 11.1 s</title></rect>
<rect x="500.1" y="342" width="58.7" height="18" rx="2" fill="#d95926" fill-opacity="0.4"><title>MTPLX upstream 8K turn 2: TTFT 0.76 s, generation 11.1 s</title></rect>
<rect x="560.8" y="342" width="4.1" height="18" rx="2" fill="#d95926"><title>MTPLX upstream 8K turn 3: TTFT 0.77 s, generation 8.62 s</title></rect>
<rect x="564.9" y="342" width="45.5" height="18" rx="2" fill="#d95926" fill-opacity="0.4"><title>MTPLX upstream 8K turn 3: TTFT 0.77 s, generation 8.62 s</title></rect>
<text x="618.4" y="355" fill="#ffffff" font-size="11">1.4 min</text>
<text x="142" y="379" fill="#c3c2b7" font-size="11" text-anchor="end">oMLX</text>
<rect x="150.0" y="366" width="297.6" height="18" rx="2" fill="#199e70"><title>oMLX 8K turn 1: TTFT 56.4 s, generation 12.6 s</title></rect>
<rect x="447.6" y="366" width="66.6" height="18" rx="2" fill="#199e70" fill-opacity="0.4"><title>oMLX 8K turn 1: TTFT 56.4 s, generation 12.6 s</title></rect>
<rect x="516.3" y="366" width="158.2" height="18" rx="2" fill="#199e70"><title>oMLX 8K turn 2: TTFT 30.0 s, generation 12.9 s</title></rect>
<rect x="674.4" y="366" width="68.2" height="18" rx="2" fill="#199e70" fill-opacity="0.4"><title>oMLX 8K turn 2: TTFT 30.0 s, generation 12.9 s</title></rect>
<rect x="744.6" y="366" width="14.2" height="18" rx="2" fill="#199e70"><title>oMLX 8K turn 3: TTFT 2.69 s, generation 10.00 s</title></rect>
<rect x="758.8" y="366" width="52.8" height="18" rx="2" fill="#199e70" fill-opacity="0.4"><title>oMLX 8K turn 3: TTFT 2.69 s, generation 10.00 s</title></rect>
<text x="819.6" y="379" fill="#ffffff" font-size="11">2.1 min</text>
<text x="142" y="403" fill="#c3c2b7" font-size="11" text-anchor="end">Splash M1 build</text>
<rect x="150.0" y="390" width="314.4" height="18" rx="2" fill="#c98500"><title>Splash M1 build 8K turn 1: TTFT 59.6 s, generation 9.50 s</title></rect>
<rect x="464.4" y="390" width="50.2" height="18" rx="2" fill="#c98500" fill-opacity="0.4"><title>Splash M1 build 8K turn 1: TTFT 59.6 s, generation 9.50 s</title></rect>
<rect x="516.6" y="390" width="17.0" height="18" rx="2" fill="#c98500"><title>Splash M1 build 8K turn 2: TTFT 3.21 s, generation 8.01 s</title></rect>
<rect x="533.6" y="390" width="42.3" height="18" rx="2" fill="#c98500" fill-opacity="0.4"><title>Splash M1 build 8K turn 2: TTFT 3.21 s, generation 8.01 s</title></rect>
<rect x="577.8" y="390" width="16.1" height="18" rx="2" fill="#c98500"><title>Splash M1 build 8K turn 3: TTFT 3.05 s, generation 6.78 s</title></rect>
<rect x="593.9" y="390" width="35.8" height="18" rx="2" fill="#c98500" fill-opacity="0.4"><title>Splash M1 build 8K turn 3: TTFT 3.05 s, generation 6.78 s</title></rect>
<text x="637.8" y="403" fill="#ffffff" font-size="11">1.5 min</text>
<text x="142" y="427" fill="#c3c2b7" font-size="11" text-anchor="end">Splash source (HEAD)</text>
<rect x="150.0" y="414" width="309.6" height="18" rx="2" fill="#d55181"><title>Splash source (HEAD) 8K turn 1: TTFT 58.6 s, generation 8.96 s</title></rect>
<rect x="459.6" y="414" width="47.3" height="18" rx="2" fill="#d55181" fill-opacity="0.4"><title>Splash source (HEAD) 8K turn 1: TTFT 58.6 s, generation 8.96 s</title></rect>
<rect x="508.9" y="414" width="16.1" height="18" rx="2" fill="#d55181"><title>Splash source (HEAD) 8K turn 2: TTFT 3.06 s, generation 6.35 s</title></rect>
<rect x="525.0" y="414" width="33.5" height="18" rx="2" fill="#d55181" fill-opacity="0.4"><title>Splash source (HEAD) 8K turn 2: TTFT 3.06 s, generation 6.35 s</title></rect>
<rect x="560.6" y="414" width="15.4" height="18" rx="2" fill="#d55181"><title>Splash source (HEAD) 8K turn 3: TTFT 2.91 s, generation 6.26 s</title></rect>
<rect x="576.0" y="414" width="33.1" height="18" rx="2" fill="#d55181" fill-opacity="0.4"><title>Splash source (HEAD) 8K turn 3: TTFT 2.91 s, generation 6.26 s</title></rect>
<text x="617.0" y="427" fill="#ffffff" font-size="11">1.4 min</text>
<text x="20" y="502" fill="#ffffff" font-size="13" font-weight="600">32K prompt</text>
<line x1="150.0" x2="150.0" y1="510" y2="634" stroke="#34332f"/><text x="150.0" y="648" fill="#c3c2b7" font-size="10" text-anchor="middle">0 min</text>
<line x1="315.0" x2="315.0" y1="510" y2="634" stroke="#34332f"/><text x="315.0" y="648" fill="#c3c2b7" font-size="10" text-anchor="middle">2 </text>
<line x1="480.0" x2="480.0" y1="510" y2="634" stroke="#34332f"/><text x="480.0" y="648" fill="#c3c2b7" font-size="10" text-anchor="middle">4 </text>
<line x1="645.0" x2="645.0" y1="510" y2="634" stroke="#34332f"/><text x="645.0" y="648" fill="#c3c2b7" font-size="10" text-anchor="middle">6 </text>
<line x1="810.0" x2="810.0" y1="510" y2="634" stroke="#34332f"/><text x="810.0" y="648" fill="#c3c2b7" font-size="10" text-anchor="middle">8 </text>
<text x="142" y="527" fill="#c3c2b7" font-size="11" text-anchor="end">MTPLX fork</text>
<rect x="150.0" y="514" width="344.1" height="18" rx="2" fill="#3987e5"><title>MTPLX fork 32K turn 1: TTFT 4.2 min, generation 10.5 s</title></rect>
<rect x="494.1" y="514" width="14.4" height="18" rx="2" fill="#3987e5" fill-opacity="0.4"><title>MTPLX fork 32K turn 1: TTFT 4.2 min, generation 10.5 s</title></rect>
<rect x="510.6" y="514" width="1.5" height="18" rx="2" fill="#3987e5"><title>MTPLX fork 32K turn 2: TTFT 0.96 s, generation 10.3 s</title></rect>
<rect x="512.1" y="514" width="14.1" height="18" rx="2" fill="#3987e5" fill-opacity="0.4"><title>MTPLX fork 32K turn 2: TTFT 0.96 s, generation 10.3 s</title></rect>
<rect x="528.2" y="514" width="1.5" height="18" rx="2" fill="#3987e5"><title>MTPLX fork 32K turn 3: TTFT 0.98 s, generation 8.44 s</title></rect>
<rect x="529.7" y="514" width="11.6" height="18" rx="2" fill="#3987e5" fill-opacity="0.4"><title>MTPLX fork 32K turn 3: TTFT 0.98 s, generation 8.44 s</title></rect>
<text x="549.3" y="527" fill="#ffffff" font-size="11">4.7 min</text>
<text x="142" y="551" fill="#c3c2b7" font-size="11" text-anchor="end">MTPLX upstream</text>
<rect x="150.0" y="538" width="338.0" height="18" rx="2" fill="#d95926"><title>MTPLX upstream 32K turn 1: TTFT 4.1 min, generation 15.0 s</title></rect>
<rect x="488.0" y="538" width="20.7" height="18" rx="2" fill="#d95926" fill-opacity="0.4"><title>MTPLX upstream 32K turn 1: TTFT 4.1 min, generation 15.0 s</title></rect>
<rect x="510.7" y="538" width="1.9" height="18" rx="2" fill="#d95926"><title>MTPLX upstream 32K turn 2: TTFT 1.38 s, generation 20.7 s</title></rect>
<rect x="512.6" y="538" width="28.4" height="18" rx="2" fill="#d95926" fill-opacity="0.4"><title>MTPLX upstream 32K turn 2: TTFT 1.38 s, generation 20.7 s</title></rect>
<rect x="543.0" y="538" width="1.9" height="18" rx="2" fill="#d95926"><title>MTPLX upstream 32K turn 3: TTFT 1.37 s, generation 17.3 s</title></rect>
<rect x="544.9" y="538" width="23.7" height="18" rx="2" fill="#d95926" fill-opacity="0.4"><title>MTPLX upstream 32K turn 3: TTFT 1.37 s, generation 17.3 s</title></rect>
<text x="576.6" y="551" fill="#ffffff" font-size="11">5.0 min</text>
<text x="142" y="575" fill="#c3c2b7" font-size="11" text-anchor="end">oMLX</text>
<rect x="150.0" y="562" width="361.1" height="18" rx="2" fill="#199e70"><title>oMLX 32K turn 1: TTFT 4.4 min, generation 17.7 s</title></rect>
<rect x="511.1" y="562" width="24.3" height="18" rx="2" fill="#199e70" fill-opacity="0.4"><title>oMLX 32K turn 1: TTFT 4.4 min, generation 17.7 s</title></rect>
<rect x="537.3" y="562" width="61.3" height="18" rx="2" fill="#199e70"><title>oMLX 32K turn 2: TTFT 44.6 s, generation 18.2 s</title></rect>
<rect x="598.6" y="562" width="25.1" height="18" rx="2" fill="#199e70" fill-opacity="0.4"><title>oMLX 32K turn 2: TTFT 44.6 s, generation 18.2 s</title></rect>
<rect x="625.7" y="562" width="4.7" height="18" rx="2" fill="#199e70"><title>oMLX 32K turn 3: TTFT 3.45 s, generation 14.3 s</title></rect>
<rect x="630.4" y="562" width="19.6" height="18" rx="2" fill="#199e70" fill-opacity="0.4"><title>oMLX 32K turn 3: TTFT 3.45 s, generation 14.3 s</title></rect>
<text x="658.0" y="575" fill="#ffffff" font-size="11">6.0 min</text>
<text x="142" y="599" fill="#c3c2b7" font-size="11" text-anchor="end">Splash M1 build</text>
<rect x="150.0" y="586" width="416.5" height="18" rx="2" fill="#c98500"><title>Splash M1 build 32K turn 1: TTFT 5.0 min, generation 11.0 s</title></rect>
<rect x="566.5" y="586" width="15.1" height="18" rx="2" fill="#c98500" fill-opacity="0.4"><title>Splash M1 build 32K turn 1: TTFT 5.0 min, generation 11.0 s</title></rect>
<rect x="583.6" y="586" width="6.1" height="18" rx="2" fill="#c98500"><title>Splash M1 build 32K turn 2: TTFT 4.43 s, generation 9.36 s</title></rect>
<rect x="589.7" y="586" width="12.9" height="18" rx="2" fill="#c98500" fill-opacity="0.4"><title>Splash M1 build 32K turn 2: TTFT 4.43 s, generation 9.36 s</title></rect>
<rect x="604.6" y="586" width="5.7" height="18" rx="2" fill="#c98500"><title>Splash M1 build 32K turn 3: TTFT 4.18 s, generation 7.96 s</title></rect>
<rect x="610.3" y="586" width="10.9" height="18" rx="2" fill="#c98500" fill-opacity="0.4"><title>Splash M1 build 32K turn 3: TTFT 4.18 s, generation 7.96 s</title></rect>
<text x="629.3" y="599" fill="#ffffff" font-size="11">5.7 min</text>
<text x="142" y="623" fill="#c3c2b7" font-size="11" text-anchor="end">Splash source (HEAD)</text>
<rect x="150.0" y="610" width="404.9" height="18" rx="2" fill="#d55181"><title>Splash source (HEAD) 32K turn 1: TTFT 4.9 min, generation 10.1 s</title></rect>
<rect x="554.9" y="610" width="13.8" height="18" rx="2" fill="#d55181" fill-opacity="0.4"><title>Splash source (HEAD) 32K turn 1: TTFT 4.9 min, generation 10.1 s</title></rect>
<rect x="570.7" y="610" width="5.5" height="18" rx="2" fill="#d55181"><title>Splash source (HEAD) 32K turn 2: TTFT 3.97 s, generation 8.77 s</title></rect>
<rect x="576.2" y="610" width="12.1" height="18" rx="2" fill="#d55181" fill-opacity="0.4"><title>Splash source (HEAD) 32K turn 2: TTFT 3.97 s, generation 8.77 s</title></rect>
<rect x="590.3" y="610" width="5.4" height="18" rx="2" fill="#d55181"><title>Splash source (HEAD) 32K turn 3: TTFT 3.96 s, generation 6.43 s</title></rect>
<rect x="595.7" y="610" width="8.8" height="18" rx="2" fill="#d55181" fill-opacity="0.4"><title>Splash source (HEAD) 32K turn 3: TTFT 3.96 s, generation 6.43 s</title></rect>
<text x="612.5" y="623" fill="#ffffff" font-size="11">5.5 min</text>
<text x="20" y="698" fill="#ffffff" font-size="13" font-weight="600">64K prompt</text>
<line x1="150.0" x2="150.0" y1="706" y2="830" stroke="#34332f"/><text x="150.0" y="844" fill="#c3c2b7" font-size="10" text-anchor="middle">0 min</text>
<line x1="370.0" x2="370.0" y1="706" y2="830" stroke="#34332f"/><text x="370.0" y="844" fill="#c3c2b7" font-size="10" text-anchor="middle">5 </text>
<line x1="590.0" x2="590.0" y1="706" y2="830" stroke="#34332f"/><text x="590.0" y="844" fill="#c3c2b7" font-size="10" text-anchor="middle">10 </text>
<line x1="810.0" x2="810.0" y1="706" y2="830" stroke="#34332f"/><text x="810.0" y="844" fill="#c3c2b7" font-size="10" text-anchor="middle">15 </text>
<text x="142" y="723" fill="#c3c2b7" font-size="11" text-anchor="end">MTPLX fork</text>
<rect x="150.0" y="710" width="434.5" height="18" rx="2" fill="#3987e5"><title>MTPLX fork 64K turn 1: TTFT 9.9 min, generation 12.7 s</title></rect>
<rect x="584.5" y="710" width="9.3" height="18" rx="2" fill="#3987e5" fill-opacity="0.4"><title>MTPLX fork 64K turn 1: TTFT 9.9 min, generation 12.7 s</title></rect>
<rect x="595.7" y="710" width="1.5" height="18" rx="2" fill="#3987e5"><title>MTPLX fork 64K turn 2: TTFT 1.39 s, generation 11.3 s</title></rect>
<rect x="597.2" y="710" width="8.3" height="18" rx="2" fill="#3987e5" fill-opacity="0.4"><title>MTPLX fork 64K turn 2: TTFT 1.39 s, generation 11.3 s</title></rect>
<rect x="607.5" y="710" width="1.5" height="18" rx="2" fill="#3987e5"><title>MTPLX fork 64K turn 3: TTFT 1.37 s, generation 9.02 s</title></rect>
<rect x="609.0" y="710" width="6.6" height="18" rx="2" fill="#3987e5" fill-opacity="0.4"><title>MTPLX fork 64K turn 3: TTFT 1.37 s, generation 9.02 s</title></rect>
<text x="623.6" y="723" fill="#ffffff" font-size="11">10.5 min</text>
<text x="142" y="747" fill="#c3c2b7" font-size="11" text-anchor="end">MTPLX upstream</text>
<rect x="150.0" y="734" width="433.6" height="18" rx="2" fill="#d95926"><title>MTPLX upstream 64K turn 1: TTFT 9.9 min, generation 29.2 s</title></rect>
<rect x="583.6" y="734" width="21.4" height="18" rx="2" fill="#d95926" fill-opacity="0.4"><title>MTPLX upstream 64K turn 1: TTFT 9.9 min, generation 29.2 s</title></rect>
<rect x="607.0" y="734" width="1.5" height="18" rx="2" fill="#d95926"><title>MTPLX upstream 64K turn 2: TTFT 2.07 s, generation 29.7 s</title></rect>
<rect x="608.5" y="734" width="21.8" height="18" rx="2" fill="#d95926" fill-opacity="0.4"><title>MTPLX upstream 64K turn 2: TTFT 2.07 s, generation 29.7 s</title></rect>
<rect x="632.3" y="734" width="1.6" height="18" rx="2" fill="#d95926"><title>MTPLX upstream 64K turn 3: TTFT 2.12 s, generation 20.9 s</title></rect>
<rect x="633.8" y="734" width="15.3" height="18" rx="2" fill="#d95926" fill-opacity="0.4"><title>MTPLX upstream 64K turn 3: TTFT 2.12 s, generation 20.9 s</title></rect>
<text x="657.2" y="747" fill="#ffffff" font-size="11">11.3 min</text>
<text x="142" y="771" fill="#c3c2b7" font-size="11" text-anchor="end">oMLX</text>
<rect x="150.0" y="758" width="449.9" height="18" rx="2" fill="#199e70"><title>oMLX 64K turn 1: TTFT 10.2 min, generation 23.4 s</title></rect>
<rect x="599.9" y="758" width="17.1" height="18" rx="2" fill="#199e70" fill-opacity="0.4"><title>oMLX 64K turn 1: TTFT 10.2 min, generation 23.4 s</title></rect>
<rect x="619.1" y="758" width="45.3" height="18" rx="2" fill="#199e70"><title>oMLX 64K turn 2: TTFT 1.0 min, generation 23.4 s</title></rect>
<rect x="664.4" y="758" width="17.2" height="18" rx="2" fill="#199e70" fill-opacity="0.4"><title>oMLX 64K turn 2: TTFT 1.0 min, generation 23.4 s</title></rect>
<rect x="683.5" y="758" width="3.5" height="18" rx="2" fill="#199e70"><title>oMLX 64K turn 3: TTFT 4.76 s, generation 17.3 s</title></rect>
<rect x="687.0" y="758" width="12.7" height="18" rx="2" fill="#199e70" fill-opacity="0.4"><title>oMLX 64K turn 3: TTFT 4.76 s, generation 17.3 s</title></rect>
<text x="707.7" y="771" fill="#ffffff" font-size="11">12.4 min</text>
<text x="142" y="795" fill="#c3c2b7" font-size="11" text-anchor="end">Splash M1 build</text>
<rect x="150.0" y="782" width="564.7" height="18" rx="2" fill="#c98500"><title>Splash M1 build 64K turn 1: TTFT 12.8 min, generation 13.6 s</title></rect>
<rect x="714.7" y="782" width="10.0" height="18" rx="2" fill="#c98500" fill-opacity="0.4"><title>Splash M1 build 64K turn 1: TTFT 12.8 min, generation 13.6 s</title></rect>
<rect x="726.7" y="782" width="4.2" height="18" rx="2" fill="#c98500"><title>Splash M1 build 64K turn 2: TTFT 5.68 s, generation 11.3 s</title></rect>
<rect x="730.8" y="782" width="8.3" height="18" rx="2" fill="#c98500" fill-opacity="0.4"><title>Splash M1 build 64K turn 2: TTFT 5.68 s, generation 11.3 s</title></rect>
<rect x="741.1" y="782" width="4.7" height="18" rx="2" fill="#c98500"><title>Splash M1 build 64K turn 3: TTFT 6.34 s, generation 10.7 s</title></rect>
<rect x="745.8" y="782" width="7.8" height="18" rx="2" fill="#c98500" fill-opacity="0.4"><title>Splash M1 build 64K turn 3: TTFT 6.34 s, generation 10.7 s</title></rect>
<text x="761.6" y="795" fill="#ffffff" font-size="11">13.6 min</text>
<text x="142" y="819" fill="#c3c2b7" font-size="11" text-anchor="end">Splash source (HEAD)</text>
<rect x="150.0" y="806" width="541.9" height="18" rx="2" fill="#d55181"><title>Splash source (HEAD) 64K turn 1: TTFT 12.3 min, generation 12.3 s</title></rect>
<rect x="691.9" y="806" width="9.0" height="18" rx="2" fill="#d55181" fill-opacity="0.4"><title>Splash source (HEAD) 64K turn 1: TTFT 12.3 min, generation 12.3 s</title></rect>
<rect x="702.9" y="806" width="3.7" height="18" rx="2" fill="#d55181"><title>Splash source (HEAD) 64K turn 2: TTFT 5.01 s, generation 9.42 s</title></rect>
<rect x="706.6" y="806" width="6.9" height="18" rx="2" fill="#d55181" fill-opacity="0.4"><title>Splash source (HEAD) 64K turn 2: TTFT 5.01 s, generation 9.42 s</title></rect>
<rect x="715.5" y="806" width="4.2" height="18" rx="2" fill="#d55181"><title>Splash source (HEAD) 64K turn 3: TTFT 5.78 s, generation 9.67 s</title></rect>
<rect x="719.8" y="806" width="7.1" height="18" rx="2" fill="#d55181" fill-opacity="0.4"><title>Splash source (HEAD) 64K turn 3: TTFT 5.78 s, generation 9.67 s</title></rect>
<text x="734.9" y="819" fill="#ffffff" font-size="11">13.0 min</text>
<text x="20" y="894" fill="#ffffff" font-size="13" font-weight="600">128K prompt</text>
<line x1="150.0" x2="150.0" y1="902" y2="1026" stroke="#34332f"/><text x="150.0" y="1040" fill="#c3c2b7" font-size="10" text-anchor="middle">0 min</text>
<line x1="315.0" x2="315.0" y1="902" y2="1026" stroke="#34332f"/><text x="315.0" y="1040" fill="#c3c2b7" font-size="10" text-anchor="middle">10 </text>
<line x1="480.0" x2="480.0" y1="902" y2="1026" stroke="#34332f"/><text x="480.0" y="1040" fill="#c3c2b7" font-size="10" text-anchor="middle">20 </text>
<line x1="645.0" x2="645.0" y1="902" y2="1026" stroke="#34332f"/><text x="645.0" y="1040" fill="#c3c2b7" font-size="10" text-anchor="middle">30 </text>
<line x1="810.0" x2="810.0" y1="902" y2="1026" stroke="#34332f"/><text x="810.0" y="1040" fill="#c3c2b7" font-size="10" text-anchor="middle">40 </text>
<text x="142" y="919" fill="#c3c2b7" font-size="11" text-anchor="end">MTPLX fork</text>
<rect x="150.0" y="906" width="407.4" height="18" rx="2" fill="#3987e5"><title>MTPLX fork 128K turn 1: TTFT 24.7 min, generation 15.8 s</title></rect>
<rect x="557.4" y="906" width="4.3" height="18" rx="2" fill="#3987e5" fill-opacity="0.4"><title>MTPLX fork 128K turn 1: TTFT 24.7 min, generation 15.8 s</title></rect>
<rect x="563.8" y="906" width="1.5" height="18" rx="2" fill="#3987e5"><title>MTPLX fork 128K turn 2: TTFT 2.21 s, generation 14.0 s</title></rect>
<rect x="565.3" y="906" width="3.8" height="18" rx="2" fill="#3987e5" fill-opacity="0.4"><title>MTPLX fork 128K turn 2: TTFT 2.21 s, generation 14.0 s</title></rect>
<rect x="571.1" y="906" width="1.5" height="18" rx="2" fill="#3987e5"><title>MTPLX fork 128K turn 3: TTFT 2.15 s, generation 10.4 s</title></rect>
<rect x="572.6" y="906" width="2.9" height="18" rx="2" fill="#3987e5" fill-opacity="0.4"><title>MTPLX fork 128K turn 3: TTFT 2.15 s, generation 10.4 s</title></rect>
<text x="583.5" y="919" fill="#ffffff" font-size="11">25.4 min</text>
<text x="142" y="943" fill="#c3c2b7" font-size="11" text-anchor="end">MTPLX upstream</text>
<rect x="150.0" y="930" width="502.7" height="18" rx="2" fill="#d95926"><title>MTPLX upstream 128K turn 1: TTFT 30.5 min, generation 56.9 s</title></rect>
<rect x="652.7" y="930" width="15.6" height="18" rx="2" fill="#d95926" fill-opacity="0.4"><title>MTPLX upstream 128K turn 1: TTFT 30.5 min, generation 56.9 s</title></rect>
<rect x="670.4" y="930" width="1.5" height="18" rx="2" fill="#d95926"><title>MTPLX upstream 128K turn 2: TTFT 4.16 s, generation 50.9 s</title></rect>
<rect x="671.9" y="930" width="14.0" height="18" rx="2" fill="#d95926" fill-opacity="0.4"><title>MTPLX upstream 128K turn 2: TTFT 4.16 s, generation 50.9 s</title></rect>
<rect x="687.9" y="930" width="1.5" height="18" rx="2" fill="#d95926"><title>MTPLX upstream 128K turn 3: TTFT 3.49 s, generation 37.7 s</title></rect>
<rect x="689.4" y="930" width="10.4" height="18" rx="2" fill="#d95926" fill-opacity="0.4"><title>MTPLX upstream 128K turn 3: TTFT 3.49 s, generation 37.7 s</title></rect>
<text x="707.7" y="943" fill="#ffffff" font-size="11">33.0 min</text>
<text x="142" y="967" fill="#c3c2b7" font-size="11" text-anchor="end">oMLX</text>
<rect x="150.0" y="954" width="433.6" height="18" rx="2" fill="#199e70"><title>oMLX 128K turn 1: TTFT 26.3 min, generation 33.4 s</title></rect>
<rect x="583.6" y="954" width="9.2" height="18" rx="2" fill="#199e70" fill-opacity="0.4"><title>oMLX 128K turn 1: TTFT 26.3 min, generation 33.4 s</title></rect>
<rect x="594.8" y="954" width="26.8" height="18" rx="2" fill="#199e70"><title>oMLX 128K turn 2: TTFT 1.6 min, generation 32.8 s</title></rect>
<rect x="621.6" y="954" width="9.0" height="18" rx="2" fill="#199e70" fill-opacity="0.4"><title>oMLX 128K turn 2: TTFT 1.6 min, generation 32.8 s</title></rect>
<rect x="632.6" y="954" width="2.2" height="18" rx="2" fill="#199e70"><title>oMLX 128K turn 3: TTFT 7.92 s, generation 25.5 s</title></rect>
<rect x="634.8" y="954" width="7.0" height="18" rx="2" fill="#199e70" fill-opacity="0.4"><title>oMLX 128K turn 3: TTFT 7.92 s, generation 25.5 s</title></rect>
<text x="649.8" y="967" fill="#ffffff" font-size="11">29.6 min</text>
<text x="142" y="991" fill="#c3c2b7" font-size="11" text-anchor="end">Splash M1 build</text>
<text x="156.0" y="991" fill="#ffffff" font-size="11">—</text>
<text x="142" y="1015" fill="#c3c2b7" font-size="11" text-anchor="end">Splash source (HEAD)</text>
<rect x="150.0" y="1002" width="566.5" height="18" rx="2" fill="#d55181"><title>Splash source (HEAD) 128K turn 1: TTFT 34.3 min, generation 17.8 s</title></rect>
<rect x="716.5" y="1002" width="4.9" height="18" rx="2" fill="#d55181" fill-opacity="0.4"><title>Splash source (HEAD) 128K turn 1: TTFT 34.3 min, generation 17.8 s</title></rect>
<rect x="723.4" y="1002" width="2.2" height="18" rx="2" fill="#d55181"><title>Splash source (HEAD) 128K turn 2: TTFT 8.02 s, generation 13.8 s</title></rect>
<rect x="725.6" y="1002" width="3.8" height="18" rx="2" fill="#d55181" fill-opacity="0.4"><title>Splash source (HEAD) 128K turn 2: TTFT 8.02 s, generation 13.8 s</title></rect>
<rect x="731.4" y="1002" width="2.1" height="18" rx="2" fill="#d55181"><title>Splash source (HEAD) 128K turn 3: TTFT 7.81 s, generation 11.7 s</title></rect>
<rect x="733.6" y="1002" width="3.2" height="18" rx="2" fill="#d55181" fill-opacity="0.4"><title>Splash source (HEAD) 128K turn 3: TTFT 7.81 s, generation 11.7 s</title></rect>
<text x="744.8" y="1015" fill="#ffffff" font-size="11">35.3 min</text>
</svg>