<svg xmlns="http://www.w3.org/2000/svg" viewBox="0 0 820 458" width="820" height="458" role="img" aria-label="Peak wired memory during the conversation" font-family="-apple-system,BlinkMacSystemFont,Segoe UI,Helvetica,Arial,sans-serif">
<rect width="820" height="458" rx="8" fill="#fcfcfb"/>
<text x="20" y="30" fill="#0b0b0b" font-size="16" font-weight="600">Peak wired memory during the conversation</text>
<text x="20" y="50" fill="#52514e" font-size="12">System-wide wired memory (vm_stat), max over turns 1–3 · 64 GB machine · lower is better</text>
<line x1="20" x2="42" y1="72" y2="72" stroke="#2a78d6" stroke-width="2"/>
<circle cx="31" cy="72" r="5" fill="#2a78d6" stroke="#fcfcfb" stroke-width="2"></circle>
<text x="48" y="76" fill="#52514e" font-size="12">MTPLX M1 build</text>
<line x1="158" x2="180" y1="72" y2="72" stroke="#eb6834" stroke-width="2"/>
<path d="M169 66L175 72L169 78L163 72Z" fill="#eb6834" stroke="#fcfcfb" stroke-width="2"></path>
<text x="186" y="76" fill="#52514e" font-size="12">MTPLX upstream</text>
<line x1="296" x2="318" y1="72" y2="72" stroke="#e87ba4" stroke-width="2"/>
<path d="M307 66L313 72L307 78L301 72Z" fill="#e87ba4" stroke="#fcfcfb" stroke-width="2"></path>
<text x="324" y="76" fill="#52514e" font-size="12">MTPLX upstream + env</text>
<line x1="476" x2="498" y1="72" y2="72" stroke="#1baf7a" stroke-width="2"/>
<rect x="482" y="67" width="10" height="10" rx="1.5" fill="#1baf7a" stroke="#fcfcfb" stroke-width="2"></rect>
<text x="504" y="76" fill="#52514e" font-size="12">oMLX</text>
<line x1="544" x2="566" y1="72" y2="72" stroke="#eda100" stroke-width="2"/>
<path d="M555 66L561 77L549 77Z" fill="#eda100" stroke="#fcfcfb" stroke-width="2"></path>
<text x="572" y="76" fill="#52514e" font-size="12">Splash 1.1.0-m1</text>
<line x1="20" x2="42" y1="90" y2="90" stroke="#8a5cd6" stroke-width="2"/>
<path d="M31 96L37 85L25 85Z" fill="#8a5cd6" stroke="#fcfcfb" stroke-width="2"></path>
<text x="48" y="94" fill="#52514e" font-size="12">TensorFold (bf16 KV)</text>
<line x1="70" x2="690" y1="394.0" y2="394.0" stroke="#e4e3de"/><text x="62" y="398.0" fill="#52514e" font-size="11" text-anchor="end">0</text>
<line x1="70" x2="690" y1="299.3" y2="299.3" stroke="#e4e3de"/><text x="62" y="303.3" fill="#52514e" font-size="11" text-anchor="end">20</text>
<line x1="70" x2="690" y1="204.7" y2="204.7" stroke="#e4e3de"/><text x="62" y="208.7" fill="#52514e" font-size="11" text-anchor="end">40</text>
<line x1="70" x2="690" y1="110.0" y2="110.0" stroke="#e4e3de"/><text x="62" y="114.0" fill="#52514e" font-size="11" text-anchor="end">60</text>
<line x1="70" x2="690" y1="394" y2="394" stroke="#8a8983"/>
<text x="132.0" y="412" fill="#52514e" font-size="12" text-anchor="middle">2K</text>
<text x="256.0" y="412" fill="#52514e" font-size="12" text-anchor="middle">8K</text>
<text x="380.0" y="412" fill="#52514e" font-size="12" text-anchor="middle">32K</text>
<text x="504.0" y="412" fill="#52514e" font-size="12" text-anchor="middle">64K</text>
<text x="628.0" y="412" fill="#52514e" font-size="12" text-anchor="middle">128K</text>
<text x="380.0" y="436" fill="#52514e" font-size="11" text-anchor="middle">prompt length (tokens)</text>
<text x="16" y="252.0" fill="#52514e" font-size="11" text-anchor="middle" transform="rotate(-90 16 252.0)">GB</text>
<polyline points="132.0,251.6 256.0,249.1 380.0,234.0 504.0,215.2 628.0,188.2" fill="none" stroke="#2a78d6" stroke-width="2" stroke-linejoin="round"/>
<circle cx="132.0" cy="251.6" r="5" fill="#2a78d6" stroke="#fcfcfb" stroke-width="2"><title>MTPLX M1 build · 2K: 30.1 GB</title></circle>
<circle cx="256.0" cy="249.1" r="5" fill="#2a78d6" stroke="#fcfcfb" stroke-width="2"><title>MTPLX M1 build · 8K: 30.6 GB</title></circle>
<circle cx="380.0" cy="234.0" r="5" fill="#2a78d6" stroke="#fcfcfb" stroke-width="2"><title>MTPLX M1 build · 32K: 33.8 GB</title></circle>
<circle cx="504.0" cy="215.2" r="5" fill="#2a78d6" stroke="#fcfcfb" stroke-width="2"><title>MTPLX M1 build · 64K: 37.8 GB</title></circle>
<circle cx="628.0" cy="188.2" r="5" fill="#2a78d6" stroke="#fcfcfb" stroke-width="2"><title>MTPLX M1 build · 128K: 43.5 GB</title></circle>
<polyline points="132.0,233.1 256.0,226.2 380.0,193.0 504.0,164.1 628.0,145.9" fill="none" stroke="#eb6834" stroke-width="2" stroke-linejoin="round"/>
<path d="M132.0 227.1L138.0 233.1L132.0 239.1L126.0 233.1Z" fill="#eb6834" stroke="#fcfcfb" stroke-width="2"><title>MTPLX upstream · 2K: 34.0 GB</title></path>
<path d="M256.0 220.2L262.0 226.2L256.0 232.2L250.0 226.2Z" fill="#eb6834" stroke="#fcfcfb" stroke-width="2"><title>MTPLX upstream · 8K: 35.5 GB</title></path>
<path d="M380.0 187.0L386.0 193.0L380.0 199.0L374.0 193.0Z" fill="#eb6834" stroke="#fcfcfb" stroke-width="2"><title>MTPLX upstream · 32K: 42.5 GB</title></path>
<path d="M504.0 158.1L510.0 164.1L504.0 170.1L498.0 164.1Z" fill="#eb6834" stroke="#fcfcfb" stroke-width="2"><title>MTPLX upstream · 64K: 48.6 GB</title></path>
<path d="M628.0 139.9L634.0 145.9L628.0 151.9L622.0 145.9Z" fill="#eb6834" stroke="#fcfcfb" stroke-width="2"><title>MTPLX upstream · 128K: 52.4 GB</title></path>
<polyline points="132.0,252.7 256.0,246.0 380.0,213.7 504.0,183.3 628.0,144.7" fill="none" stroke="#e87ba4" stroke-width="2" stroke-linejoin="round"/>
<path d="M132.0 246.7L138.0 252.7L132.0 258.7L126.0 252.7Z" fill="#e87ba4" stroke="#fcfcfb" stroke-width="2"><title>MTPLX upstream + env · 2K: 29.8 GB</title></path>
<path d="M256.0 240.0L262.0 246.0L256.0 252.0L250.0 246.0Z" fill="#e87ba4" stroke="#fcfcfb" stroke-width="2"><title>MTPLX upstream + env · 8K: 31.3 GB</title></path>
<path d="M380.0 207.7L386.0 213.7L380.0 219.7L374.0 213.7Z" fill="#e87ba4" stroke="#fcfcfb" stroke-width="2"><title>MTPLX upstream + env · 32K: 38.1 GB</title></path>
<path d="M504.0 177.3L510.0 183.3L504.0 189.3L498.0 183.3Z" fill="#e87ba4" stroke="#fcfcfb" stroke-width="2"><title>MTPLX upstream + env · 64K: 44.5 GB</title></path>
<path d="M628.0 138.7L634.0 144.7L628.0 150.7L622.0 144.7Z" fill="#e87ba4" stroke="#fcfcfb" stroke-width="2"><title>MTPLX upstream + env · 128K: 52.7 GB</title></path>
<polyline points="132.0,266.6 256.0,237.1 380.0,218.9 504.0,206.4 628.0,164.4" fill="none" stroke="#1baf7a" stroke-width="2" stroke-linejoin="round"/>
<rect x="127.0" y="261.6" width="10" height="10" rx="1.5" fill="#1baf7a" stroke="#fcfcfb" stroke-width="2"><title>oMLX · 2K: 26.9 GB</title></rect>
<rect x="251.0" y="232.1" width="10" height="10" rx="1.5" fill="#1baf7a" stroke="#fcfcfb" stroke-width="2"><title>oMLX · 8K: 33.2 GB</title></rect>
<rect x="375.0" y="213.9" width="10" height="10" rx="1.5" fill="#1baf7a" stroke="#fcfcfb" stroke-width="2"><title>oMLX · 32K: 37.0 GB</title></rect>
<rect x="499.0" y="201.4" width="10" height="10" rx="1.5" fill="#1baf7a" stroke="#fcfcfb" stroke-width="2"><title>oMLX · 64K: 39.6 GB</title></rect>
<rect x="623.0" y="159.4" width="10" height="10" rx="1.5" fill="#1baf7a" stroke="#fcfcfb" stroke-width="2"><title>oMLX · 128K: 48.5 GB</title></rect>
<polyline points="132.0,290.4 256.0,289.2 380.0,285.6 504.0,280.1 628.0,270.1" fill="none" stroke="#eda100" stroke-width="2" stroke-linejoin="round"/>
<path d="M132.0 284.4L138.0 295.4L126.0 295.4Z" fill="#eda100" stroke="#fcfcfb" stroke-width="2"><title>Splash 1.1.0-m1 · 2K: 21.9 GB</title></path>
<path d="M256.0 283.2L262.0 294.2L250.0 294.2Z" fill="#eda100" stroke="#fcfcfb" stroke-width="2"><title>Splash 1.1.0-m1 · 8K: 22.1 GB</title></path>
<path d="M380.0 279.6L386.0 290.6L374.0 290.6Z" fill="#eda100" stroke="#fcfcfb" stroke-width="2"><title>Splash 1.1.0-m1 · 32K: 22.9 GB</title></path>
<path d="M504.0 274.1L510.0 285.1L498.0 285.1Z" fill="#eda100" stroke="#fcfcfb" stroke-width="2"><title>Splash 1.1.0-m1 · 64K: 24.1 GB</title></path>
<path d="M628.0 264.1L634.0 275.1L622.0 275.1Z" fill="#eda100" stroke="#fcfcfb" stroke-width="2"><title>Splash 1.1.0-m1 · 128K: 26.2 GB</title></path>
<polyline points="132.0,285.7 256.0,287.2 380.0,265.7 504.0,236.8 628.0,217.7" fill="none" stroke="#8a5cd6" stroke-width="2" stroke-linejoin="round"/>
<path d="M132.0 291.7L138.0 280.7L126.0 280.7Z" fill="#8a5cd6" stroke="#fcfcfb" stroke-width="2"><title>TensorFold (bf16 KV) · 2K: 22.9 GB</title></path>
<path d="M256.0 293.2L262.0 282.2L250.0 282.2Z" fill="#8a5cd6" stroke="#fcfcfb" stroke-width="2"><title>TensorFold (bf16 KV) · 8K: 22.6 GB</title></path>
<path d="M380.0 271.7L386.0 260.7L374.0 260.7Z" fill="#8a5cd6" stroke="#fcfcfb" stroke-width="2"><title>TensorFold (bf16 KV) · 32K: 27.1 GB</title></path>
<path d="M504.0 242.8L510.0 231.8L498.0 231.8Z" fill="#8a5cd6" stroke="#fcfcfb" stroke-width="2"><title>TensorFold (bf16 KV) · 64K: 33.2 GB</title></path>
<path d="M628.0 223.7L634.0 212.7L622.0 212.7Z" fill="#8a5cd6" stroke="#fcfcfb" stroke-width="2"><title>TensorFold (bf16 KV) · 128K: 37.2 GB</title></path>
<text x="640.0" y="143.7" fill="#0b0b0b" font-size="12" font-weight="600">52.7 GB</text><text x="640.0" y="157.7" fill="#52514e" font-size="11">MTPLX upstream + env</text>
<text x="640.0" y="173.7" fill="#0b0b0b" font-size="12" font-weight="600">52.4 GB</text><text x="640.0" y="187.7" fill="#52514e" font-size="11">MTPLX upstream</text>
<text x="640.0" y="203.7" fill="#0b0b0b" font-size="12" font-weight="600">48.5 GB</text><text x="640.0" y="217.7" fill="#52514e" font-size="11">oMLX</text>
<text x="640.0" y="233.7" fill="#0b0b0b" font-size="12" font-weight="600">43.5 GB</text><text x="640.0" y="247.7" fill="#52514e" font-size="11">MTPLX M1 build</text>
<text x="640.0" y="263.7" fill="#0b0b0b" font-size="12" font-weight="600">37.2 GB</text><text x="640.0" y="277.7" fill="#52514e" font-size="11">TensorFold (bf16 KV)</text>
<text x="640.0" y="293.7" fill="#0b0b0b" font-size="12" font-weight="600">26.2 GB</text><text x="640.0" y="307.7" fill="#52514e" font-size="11">Splash 1.1.0-m1</text>
</svg>