<svg xmlns="http://www.w3.org/2000/svg" viewBox="0 0 820 440" width="820" height="440" role="img" aria-label="Peak wired memory during the conversation" font-family="-apple-system,BlinkMacSystemFont,Segoe UI,Helvetica,Arial,sans-serif">
<rect width="820" height="440" rx="8" fill="#1a1a19"/>
<text x="20" y="30" fill="#ffffff" font-size="16" font-weight="600">Peak wired memory during the conversation</text>
<text x="20" y="50" fill="#c3c2b7" font-size="12">System-wide wired memory (vm_stat), max over turns 1–3 · 64 GB machine · lower is better</text>
<line x1="20" x2="42" y1="72" y2="72" stroke="#3987e5" stroke-width="2"/>
<circle cx="31" cy="72" r="5" fill="#3987e5" stroke="#1a1a19" stroke-width="2"></circle>
<text x="48" y="76" fill="#c3c2b7" font-size="12">MTPLX fork</text>
<line x1="130" x2="152" y1="72" y2="72" stroke="#d95926" stroke-width="2"/>
<path d="M141 66L147 72L141 78L135 72Z" fill="#d95926" stroke="#1a1a19" stroke-width="2"></path>
<text x="158" y="76" fill="#c3c2b7" font-size="12">MTPLX upstream</text>
<line x1="268" x2="290" y1="72" y2="72" stroke="#199e70" stroke-width="2"/>
<rect x="274" y="67" width="10" height="10" rx="1.5" fill="#199e70" stroke="#1a1a19" stroke-width="2"></rect>
<text x="296" y="76" fill="#c3c2b7" font-size="12">oMLX</text>
<line x1="336" x2="358" y1="72" y2="72" stroke="#c98500" stroke-width="2"/>
<path d="M347 66L353 77L341 77Z" fill="#c98500" stroke="#1a1a19" stroke-width="2"></path>
<text x="364" y="76" fill="#c3c2b7" font-size="12">Splash M1 build</text>
<line x1="481" x2="503" y1="72" y2="72" stroke="#d55181" stroke-width="2"/>
<path d="M492 78L498 67L486 67Z" fill="#d55181" stroke="#1a1a19" stroke-width="2"></path>
<text x="509" y="76" fill="#c3c2b7" font-size="12">Splash source (HEAD)</text>
<line x1="70" x2="690" y1="376.0" y2="376.0" stroke="#34332f"/><text x="62" y="380.0" fill="#c3c2b7" font-size="11" text-anchor="end">0</text>
<line x1="70" x2="690" y1="281.3" y2="281.3" stroke="#34332f"/><text x="62" y="285.3" fill="#c3c2b7" font-size="11" text-anchor="end">20</text>
<line x1="70" x2="690" y1="186.7" y2="186.7" stroke="#34332f"/><text x="62" y="190.7" fill="#c3c2b7" font-size="11" text-anchor="end">40</text>
<line x1="70" x2="690" y1="92.0" y2="92.0" stroke="#34332f"/><text x="62" y="96.0" fill="#c3c2b7" font-size="11" text-anchor="end">60</text>
<line x1="70" x2="690" y1="376" y2="376" stroke="#6d6c66"/>
<text x="132.0" y="394" fill="#c3c2b7" font-size="12" text-anchor="middle">2K</text>
<text x="256.0" y="394" fill="#c3c2b7" font-size="12" text-anchor="middle">8K</text>
<text x="380.0" y="394" fill="#c3c2b7" font-size="12" text-anchor="middle">32K</text>
<text x="504.0" y="394" fill="#c3c2b7" font-size="12" text-anchor="middle">64K</text>
<text x="628.0" y="394" fill="#c3c2b7" font-size="12" text-anchor="middle">128K</text>
<text x="380.0" y="418" fill="#c3c2b7" font-size="11" text-anchor="middle">prompt length (tokens)</text>
<text x="16" y="234.0" fill="#c3c2b7" font-size="11" text-anchor="middle" transform="rotate(-90 16 234.0)">GB</text>
<polyline points="132.0,226.3 256.0,220.8 380.0,197.1 504.0,167.2 628.0,149.0" fill="none" stroke="#3987e5" stroke-width="2" stroke-linejoin="round"/>
<circle cx="132.0" cy="226.3" r="5" fill="#3987e5" stroke="#1a1a19" stroke-width="2"><title>MTPLX fork · 2K: 31.6 GB</title></circle>
<circle cx="256.0" cy="220.8" r="5" fill="#3987e5" stroke="#1a1a19" stroke-width="2"><title>MTPLX fork · 8K: 32.8 GB</title></circle>
<circle cx="380.0" cy="197.1" r="5" fill="#3987e5" stroke="#1a1a19" stroke-width="2"><title>MTPLX fork · 32K: 37.8 GB</title></circle>
<circle cx="504.0" cy="167.2" r="5" fill="#3987e5" stroke="#1a1a19" stroke-width="2"><title>MTPLX fork · 64K: 44.1 GB</title></circle>
<circle cx="628.0" cy="149.0" r="5" fill="#3987e5" stroke="#1a1a19" stroke-width="2"><title>MTPLX fork · 128K: 48.0 GB</title></circle>
<polyline points="132.0,215.2 256.0,208.0 380.0,183.1 504.0,147.1 628.0,126.6" fill="none" stroke="#d95926" stroke-width="2" stroke-linejoin="round"/>
<path d="M132.0 209.2L138.0 215.2L132.0 221.2L126.0 215.2Z" fill="#d95926" stroke="#1a1a19" stroke-width="2"><title>MTPLX upstream · 2K: 34.0 GB</title></path>
<path d="M256.0 202.0L262.0 208.0L256.0 214.0L250.0 208.0Z" fill="#d95926" stroke="#1a1a19" stroke-width="2"><title>MTPLX upstream · 8K: 35.5 GB</title></path>
<path d="M380.0 177.1L386.0 183.1L380.0 189.1L374.0 183.1Z" fill="#d95926" stroke="#1a1a19" stroke-width="2"><title>MTPLX upstream · 32K: 40.8 GB</title></path>
<path d="M504.0 141.1L510.0 147.1L504.0 153.1L498.0 147.1Z" fill="#d95926" stroke="#1a1a19" stroke-width="2"><title>MTPLX upstream · 64K: 48.4 GB</title></path>
<path d="M628.0 120.6L634.0 126.6L628.0 132.6L622.0 126.6Z" fill="#d95926" stroke="#1a1a19" stroke-width="2"><title>MTPLX upstream · 128K: 52.7 GB</title></path>
<polyline points="132.0,248.6 256.0,219.1 380.0,200.9 504.0,188.4 628.0,146.4" fill="none" stroke="#199e70" stroke-width="2" stroke-linejoin="round"/>
<rect x="127.0" y="243.6" width="10" height="10" rx="1.5" fill="#199e70" stroke="#1a1a19" stroke-width="2"><title>oMLX · 2K: 26.9 GB</title></rect>
<rect x="251.0" y="214.1" width="10" height="10" rx="1.5" fill="#199e70" stroke="#1a1a19" stroke-width="2"><title>oMLX · 8K: 33.2 GB</title></rect>
<rect x="375.0" y="195.9" width="10" height="10" rx="1.5" fill="#199e70" stroke="#1a1a19" stroke-width="2"><title>oMLX · 32K: 37.0 GB</title></rect>
<rect x="499.0" y="183.4" width="10" height="10" rx="1.5" fill="#199e70" stroke="#1a1a19" stroke-width="2"><title>oMLX · 64K: 39.6 GB</title></rect>
<rect x="623.0" y="141.4" width="10" height="10" rx="1.5" fill="#199e70" stroke="#1a1a19" stroke-width="2"><title>oMLX · 128K: 48.5 GB</title></rect>
<polyline points="132.0,273.3 256.0,273.7 380.0,266.7 504.0,265.0 628.0,259.0" fill="none" stroke="#c98500" stroke-width="2" stroke-linejoin="round"/>
<path d="M132.0 267.3L138.0 278.3L126.0 278.3Z" fill="#c98500" stroke="#1a1a19" stroke-width="2"><title>Splash M1 build · 2K: 21.7 GB</title></path>
<path d="M256.0 267.7L262.0 278.7L250.0 278.7Z" fill="#c98500" stroke="#1a1a19" stroke-width="2"><title>Splash M1 build · 8K: 21.6 GB</title></path>
<path d="M380.0 260.7L386.0 271.7L374.0 271.7Z" fill="#c98500" stroke="#1a1a19" stroke-width="2"><title>Splash M1 build · 32K: 23.1 GB</title></path>
<path d="M504.0 259.0L510.0 270.0L498.0 270.0Z" fill="#c98500" stroke="#1a1a19" stroke-width="2"><title>Splash M1 build · 64K: 23.4 GB</title></path>
<path d="M628.0 253.0L634.0 264.0L622.0 264.0Z" fill="#c98500" stroke="#1a1a19" stroke-width="2"><title>Splash M1 build · 128K: 24.7 GB</title></path>
<polyline points="132.0,276.0 256.0,274.8 380.0,270.9 504.0,265.7 628.0,255.3" fill="none" stroke="#d55181" stroke-width="2" stroke-linejoin="round"/>
<path d="M132.0 282.0L138.0 271.0L126.0 271.0Z" fill="#d55181" stroke="#1a1a19" stroke-width="2"><title>Splash source (HEAD) · 2K: 21.1 GB</title></path>
<path d="M256.0 280.8L262.0 269.8L250.0 269.8Z" fill="#d55181" stroke="#1a1a19" stroke-width="2"><title>Splash source (HEAD) · 8K: 21.4 GB</title></path>
<path d="M380.0 276.9L386.0 265.9L374.0 265.9Z" fill="#d55181" stroke="#1a1a19" stroke-width="2"><title>Splash source (HEAD) · 32K: 22.2 GB</title></path>
<path d="M504.0 271.7L510.0 260.7L498.0 260.7Z" fill="#d55181" stroke="#1a1a19" stroke-width="2"><title>Splash source (HEAD) · 64K: 23.3 GB</title></path>
<path d="M628.0 261.3L634.0 250.3L622.0 250.3Z" fill="#d55181" stroke="#1a1a19" stroke-width="2"><title>Splash source (HEAD) · 128K: 25.5 GB</title></path>
<text x="640.0" y="125.6" fill="#ffffff" font-size="12" font-weight="600">52.7 GB</text><text x="640.0" y="139.6" fill="#c3c2b7" font-size="11">MTPLX upstream</text>
<text x="640.0" y="155.6" fill="#ffffff" font-size="12" font-weight="600">48.5 GB</text><text x="640.0" y="169.6" fill="#c3c2b7" font-size="11">oMLX</text>
<text x="640.0" y="185.6" fill="#ffffff" font-size="12" font-weight="600">48.0 GB</text><text x="640.0" y="199.6" fill="#c3c2b7" font-size="11">MTPLX fork</text>
<text x="640.0" y="254.3" fill="#ffffff" font-size="12" font-weight="600">25.5 GB</text><text x="640.0" y="268.3" fill="#c3c2b7" font-size="11">Splash source (HEAD)</text>
<text x="640.0" y="284.3" fill="#ffffff" font-size="12" font-weight="600">24.7 GB</text><text x="640.0" y="298.3" fill="#c3c2b7" font-size="11">Splash M1 build</text>
</svg>